<?xml version="1.0" standalone="no"?>
<!DOCTYPE svg PUBLIC "-//W3C//DTD SVG 20010904//EN"
 "http://www.w3.org/TR/2001/REC-SVG-20010904/DTD/svg10.dtd">
<svg version="1.0" xmlns="http://www.w3.org/2000/svg"
 width="800.000000pt" height="800.000000pt" viewBox="0 0 800.000000 800.000000"
 preserveAspectRatio="xMidYMid meet">

<g transform="translate(0.000000,800.000000) scale(0.100000,-0.100000)"
fill="#000000" stroke="none">
<path d="M1960 7377 c-333 -341 -605 -623 -605 -626 0 -4 629 -622 1398 -1375
768 -753 1397 -1372 1397 -1376 0 -4 -629 -623 -1397 -1376 -769 -752 -1398
-1371 -1398 -1375 0 -6 401 -419 997 -1026 l218 -222 2037 1997 c1121 1098
2038 1999 2038 2002 0 5 -3989 3916 -4051 3971 l-29 26 -605 -620z"/>
</g>
</svg>
